<svg xmlns="http://www.w3.org/2000/svg" viewBox="0 0 64 64" fill="none" role="img" aria-label="Teapot">
  <g stroke="#a8703e" stroke-width="3" stroke-linecap="round" stroke-linejoin="round">
    <path d="M18 33c0-5 6-9 14-9s14 4 14 9c0 9-6 15-14 15s-14-6-14-15z" fill="rgba(168,112,62,0.13)"/>
    <path d="M25 25c0-4 3-7 7-7s7 3 7 7" fill="rgba(168,112,62,0.13)"/>
    <circle cx="32" cy="15" r="2.6" fill="rgba(168,112,62,0.13)"/>
    <path d="M18 34c-5 0-8-2-9-6-.8-3 1-6 4-7"/>
    <path d="M46 34c6 0 9 3 8 8-.8 4-4 6-8 5"/>
    <path d="M45 8c2.8 2.5 2.8 6 0 8.6" stroke="#5c7458"/>
  </g>
</svg>
